<svg width="228.207177734375px" height="122px" xmlns="http://www.w3.org/2000/svg" viewBox="135.8964111328125 14 228.207177734375 122" style="background: rgba(0, 0, 0, 0);" preserveAspectRatio="xMidYMid"><defs><linearGradient id="editing-shiny-gradient" x1="0.04322727117869957" x2="0.9567727288213004" y1="0.2966316784620999" y2="0.7033683215379001" gradientUnits="objectBoundingBox"><stop offset="0.0" stop-color="#ffb200"></stop><stop offset="0.5" stop-color="#e10057"></stop><stop offset="1.0" stop-color="#5A1A80"></stop></linearGradient><linearGradient id="editing-shiny-gradient2" x1="0" x2="0" y1="0" y2="1"><stop offset="0.2" stop-color="#fff" stop-opacity="0.8"></stop><stop offset="0.8" stop-color="#fff" stop-opacity="0"></stop></linearGradient><filter id="editing-shiny2" x="-100%" y="-100%" width="300%" height="300%"><feMorphology operator="erode" radius="2"></feMorphology></filter><filter id="editing-shiny" x="-100%" y="-100%" width="300%" height="300%"><feFlood flood-color="#fff" result="flood"></feFlood><feConvolveMatrix in="SourceGraphic" result="conv" order="8,8" divisor="1" kernelMatrix="0 0 0 0 0 0 0 0 0 0 0 1 1 0 0 0 0 0 0 1 1 0 0 0 0 0 1 0 0 1 0 0 0 0 1 0 0 1 0 0 0 1 0 0 0 0 1 0 0 1 1 0 0 1 1 0 0 0 0 1 1 0 0 0 "></feConvolveMatrix><feOffset dx="0" dy="4" in="conv" result="offset"></feOffset><feComposite operator="in" in="flood" in2="offset" result="comp"></feComposite><feGaussianBlur in="offset" stdDeviation="3" result="shadow"></feGaussianBlur><feColorMatrix in="shadow" type="matrix" values="0.7 0 0 0 0  0 0.7 0 0 0  0 0 0.7 0 0  0 0 0 0.3 0" result="dark-shadow"></feColorMatrix><feOffset dx="0" dy="4" in="dark-shadow" result="offset-shadow"></feOffset><feOffset dx="0" dy="2" in="conv" result="offset-2"></feOffset><feComposite operator="out" in="offset" in2="offset-2" result="edge-diff"></feComposite><feGaussianBlur in="edge-diff" stdDeviation="1" result="edge-blur"></feGaussianBlur><feColorMatrix in="edge-blur" result="edge-shadow" type="matrix" values="0 0 0 0 0  0 0 0 0 0  0 0 0 0 0  0 0 0 0.5 0"></feColorMatrix><feComposite operator="in" in="edge-shadow" in2="offset" result="edge-shadow-in"></feComposite><feOffset dx="0" dy="1" in="edge-shadow-in" result="edge-shadow-final"></feOffset><feMerge result="out"><feMergeNode in="offset-shadow"></feMergeNode><feMergeNode in="comp"></feMergeNode><feMergeNode in="edge-shadow-final"></feMergeNode><feMergeNode in="SourceGraphic"></feMergeNode></feMerge></filter></defs><g filter="url(#editing-shiny)"><g transform="translate(176.304838180542, 97.08000183105469)"><path d="M29.18 1.28L29.18 1.28L29.18 1.28Q20.99 1.28 20.22-10.37L20.22-10.37L9.22-10.37L9.22-10.37Q7.94-7.42 7.04-4.86L7.04-4.86L5.38 0L-3.58 0L16.58-42.24L30.34-42.24L33.02-11.14L33.02-11.14Q33.66-4.42 36.22-2.43L36.22-2.43L36.22-2.43Q34.37 1.28 29.18 1.28ZM14.72-23.17L11.20-15.04L20.03-15.04L19.26-31.49L19.26-33.22L14.72-23.17ZM39.30-0.32L39.30-0.32L47.36-42.24L47.36-42.24Q54.91-42.88 59.78-42.88L59.78-42.88L59.78-42.88Q64.64-42.88 67.78-42.46L67.78-42.46L67.78-42.46Q70.91-42.05 73.02-40.96L73.02-40.96L73.02-40.96Q77.25-38.91 77.25-33.28L77.25-33.28L77.25-33.28Q77.25-30.02 74.43-27.26L74.43-27.26L74.43-27.26Q71.81-24.77 68.93-24.19L68.93-24.19L68.93-24.19Q72-23.68 74.18-21.38L74.18-21.38L74.18-21.38Q76.48-18.94 76.48-15.17L76.48-15.17L76.48-15.17Q76.48-7.87 71.04-3.62L71.04-3.62L71.04-3.62Q65.60 0.64 54.91 0.64L54.91 0.64L54.91 0.64Q47.55 0.64 39.30-0.32ZM56.70-20.61L53.50-4.03L53.50-4.03Q54.08-3.97 54.21-3.97L54.21-3.97L54.78-3.97L54.78-3.97Q60.03-3.97 62.27-7.42L62.27-7.42L62.27-7.42Q63.94-10.11 63.94-15.04L63.94-15.04L63.94-15.04Q63.94-17.66 62.24-19.07L62.24-19.07L62.24-19.07Q60.54-20.48 56.70-20.61L56.70-20.61ZM66.43-33.22L66.43-33.22L66.43-33.22Q66.43-38.53 61.31-38.53L61.31-38.53L60.74-38.53L60.74-38.53Q60.48-38.53 60.10-38.46L60.10-38.46L57.54-24.96L58.18-24.96L58.18-24.96Q66.43-25.15 66.43-33.22ZM104.58-4.80L104.58-4.80L104.58-4.80Q104.58-9.28 106.37-18.24L106.37-18.24L96.90-18.24L93.38 0L80 0L88.13-42.24L101.63-42.24L97.92-23.36L107.39-23.36L110.91-42.24L124.42-42.24L124.42-42.24Q123.52-37.50 122.37-32.19L122.37-32.19L120.19-21.76L120.19-21.76Q117.76-9.60 117.76-4.29L117.76-4.29L117.76-4.29Q117.76-2.11 118.46-0.90L118.46-0.90L118.46-0.90Q115.26 1.28 111.52 1.28L111.52 1.28L111.52 1.28Q107.78 1.28 106.18-0.51L106.18-0.51L106.18-0.51Q104.58-2.30 104.58-4.80ZM139.20 0L125.25 0L133.38-42.24L147.46-42.24L139.20 0Z" fill="url(#editing-shiny-gradient)"></path></g></g><g filter="url(#editing-shiny2)"><g transform="translate(176.09938621520996, 97.08000183105469)"><path d="M29.18 1.28L29.18 1.28L29.18 1.28Q20.99 1.28 20.22-10.37L20.22-10.37L9.22-10.37L9.22-10.37Q7.94-7.42 7.04-4.86L7.04-4.86L5.38 0L-3.58 0L16.58-42.24L30.34-42.24L33.02-11.14L33.02-11.14Q33.66-4.42 36.22-2.43L36.22-2.43L36.22-2.43Q34.37 1.28 29.18 1.28ZM14.72-23.17L11.20-15.04L20.03-15.04L19.26-31.49L19.26-33.22L14.72-23.17ZM39.30-0.32L39.30-0.32L47.36-42.24L47.36-42.24Q54.91-42.88 59.78-42.88L59.78-42.88L59.78-42.88Q64.64-42.88 67.78-42.46L67.78-42.46L67.78-42.46Q70.91-42.05 73.02-40.96L73.02-40.96L73.02-40.96Q77.25-38.91 77.25-33.28L77.25-33.28L77.25-33.28Q77.25-30.02 74.43-27.26L74.43-27.26L74.43-27.26Q71.81-24.77 68.93-24.19L68.93-24.19L68.93-24.19Q72-23.68 74.18-21.38L74.18-21.38L74.18-21.38Q76.48-18.94 76.48-15.17L76.48-15.17L76.48-15.17Q76.48-7.87 71.04-3.62L71.04-3.62L71.04-3.62Q65.60 0.64 54.91 0.64L54.91 0.64L54.91 0.64Q47.55 0.64 39.30-0.32ZM56.70-20.61L53.50-4.03L53.50-4.03Q54.08-3.97 54.21-3.97L54.21-3.97L54.78-3.97L54.78-3.97Q60.03-3.97 62.27-7.42L62.27-7.42L62.27-7.42Q63.94-10.11 63.94-15.04L63.94-15.04L63.94-15.04Q63.94-17.66 62.24-19.07L62.24-19.07L62.24-19.07Q60.54-20.48 56.70-20.61L56.70-20.61ZM66.43-33.22L66.43-33.22L66.43-33.22Q66.43-38.53 61.31-38.53L61.31-38.53L60.74-38.53L60.74-38.53Q60.48-38.53 60.10-38.46L60.10-38.46L57.54-24.96L58.18-24.96L58.18-24.96Q66.43-25.15 66.43-33.22ZM104.58-4.80L104.58-4.80L104.58-4.80Q104.58-9.28 106.37-18.24L106.37-18.24L96.90-18.24L93.38 0L80 0L88.13-42.24L101.63-42.24L97.92-23.36L107.39-23.36L110.91-42.24L124.42-42.24L124.42-42.24Q123.52-37.50 122.37-32.19L122.37-32.19L120.19-21.76L120.19-21.76Q117.76-9.60 117.76-4.29L117.76-4.29L117.76-4.29Q117.76-2.11 118.46-0.90L118.46-0.90L118.46-0.90Q115.26 1.28 111.52 1.28L111.52 1.28L111.52 1.28Q107.78 1.28 106.18-0.51L106.18-0.51L106.18-0.51Q104.58-2.30 104.58-4.80ZM139.20 0L125.25 0L133.38-42.24L147.46-42.24L139.20 0Z" fill="url(#editing-shiny-gradient2)"></path></g></g><style>text {
  font-size: 64px;
  font-family: Arial Black;
  dominant-baseline: central;
  text-anchor: middle;
}</style></svg>